HIERARCHY
ROOT Hips
{
	OFFSET 0.0000 0.0000 0.0000
	CHANNELS 6 Xposition Yposition Zposition Zrotation Xrotation Yrotation
	JOINT Spine1
	{
		OFFSET -0.0137 5.0038 -0.0537
		CHANNELS 3 Zrotation Xrotation Yrotation
		JOINT Spine2
		{
			OFFSET -0.0000 7.1253 -0.0298
			CHANNELS 3 Zrotation Xrotation Yrotation
			JOINT Chest
			{
				OFFSET -0.0000 7.5501 -0.8160
				CHANNELS 3 Zrotation Xrotation Yrotation
				JOINT Neck1
				{
					OFFSET -0.1817 26.3113 -0.5533
					CHANNELS 3 Zrotation Xrotation Yrotation
					JOINT Neck2
					{
						OFFSET -0.0000 7.7094 2.3026
						CHANNELS 3 Zrotation Xrotation Yrotation
						JOINT Head
						{
							OFFSET -0.0000 6.1289 1.9537
							CHANNELS 3 Zrotation Xrotation Yrotation
							JOINT Jaw
							{
								OFFSET 0.0026 0.4756 3.0949
								CHANNELS 3 Zrotation Xrotation Yrotation
								End Site
								{
									OFFSET 0.0 1.0 0.0
								}
							}
							JOINT LeftEye
							{
								OFFSET 3.2064 5.3802 7.5869
								CHANNELS 3 Zrotation Xrotation Yrotation
								End Site
								{
									OFFSET 0.0 1.0 0.0
								}
							}
							JOINT RightEye
							{
								OFFSET -3.2224 5.3619 7.5582
								CHANNELS 3 Zrotation Xrotation Yrotation
								End Site
								{
									OFFSET 0.0 1.0 0.0
								}
							}
						}
					}
				}
				JOINT LeftShoulder
				{
					OFFSET 1.6217 23.2372 5.1134
					CHANNELS 3 Zrotation Xrotation Yrotation
					JOINT LeftArm
					{
						OFFSET 14.9198 0.0000 -5.5023
						CHANNELS 3 Zrotation Xrotation Yrotation
						JOINT LeftForeArm
						{
							OFFSET 28.7393 0.0000 -0.0026
							CHANNELS 3 Zrotation Xrotation Yrotation
							JOINT LeftHand
							{
								OFFSET 27.0940 -0.0000 0.0026
								CHANNELS 3 Zrotation Xrotation Yrotation
								JOINT LeftHandThumbEnd
								{
									OFFSET 12.2686 -3.2202 4.8331
									CHANNELS 3 Zrotation Xrotation Yrotation
									End Site
									{
										OFFSET 0.0 1.0 0.0
									}
								}
								JOINT LeftHandMiddleEnd
								{
									OFFSET 19.0120 -0.3129 -0.0340
									CHANNELS 3 Zrotation Xrotation Yrotation
									End Site
									{
										OFFSET 0.0 1.0 0.0
									}
								}
							}
						}
					}
				}
				JOINT RightShoulder
				{
					OFFSET -1.3801 23.1803 5.2142
					CHANNELS 3 Zrotation Xrotation Yrotation
					JOINT RightArm
					{
						OFFSET -15.0372 0.0000 -5.5456
						CHANNELS 3 Zrotation Xrotation Yrotation
						JOINT RightForeArm
						{
							OFFSET -28.7366 0.0000 -0.0026
							CHANNELS 3 Zrotation Xrotation Yrotation
							JOINT RightHand
							{
								OFFSET -27.1336 -0.0000 0.0026
								CHANNELS 3 Zrotation Xrotation Yrotation
								JOINT RightHandThumbEnd
								{
									OFFSET -12.2642 -3.2115 4.8040
									CHANNELS 3 Zrotation Xrotation Yrotation
									End Site
									{
										OFFSET 0.0 1.0 0.0
									}
								}
								JOINT RightHandMiddleEnd
								{
									OFFSET -19.0006 -0.3066 -0.0316
									CHANNELS 3 Zrotation Xrotation Yrotation
									End Site
									{
										OFFSET 0.0 1.0 0.0
									}
								}
							}
						}
					}
				}
			}
		}
	}
	JOINT LeftLeg
	{
		OFFSET 10.0432 -8.4345 2.5957
		CHANNELS 3 Zrotation Xrotation Yrotation
		JOINT LeftShin
		{
			OFFSET -0.0000 -43.2218 -0.8029
			CHANNELS 3 Zrotation Xrotation Yrotation
			JOINT LeftFoot
			{
				OFFSET 0.0000 -42.1551 -3.4815
				CHANNELS 3 Zrotation Xrotation Yrotation
				JOINT LeftToeBase
				{
					OFFSET 0.0000 -5.0595 13.2315
					CHANNELS 3 Zrotation Xrotation Yrotation
					End Site
					{
						OFFSET 0.0 1.0 0.0
					}
				}
			}
		}
	}
	JOINT RightLeg
	{
		OFFSET -10.0473 -8.2953 2.6203
		CHANNELS 3 Zrotation Xrotation Yrotation
		JOINT RightShin
		{
			OFFSET 0.0000 -43.3622 -0.8056
			CHANNELS 3 Zrotation Xrotation Yrotation
			JOINT RightFoot
			{
				OFFSET 0.0000 -42.1174 -3.4784
				CHANNELS 3 Zrotation Xrotation Yrotation
				JOINT RightToeBase
				{
					OFFSET -0.0000 -5.0796 13.2842
					CHANNELS 3 Zrotation Xrotation Yrotation
					End Site
					{
						OFFSET 0.0 1.0 0.0
					}
				}
			}
		}
	}
}
MOTION
Frames: 14
Frame Time: 0.033333
0.5229 89.7572 0.4406 4.1926 -5.4504 -0.9656 -0.0971 7.6925 -0.6975 -0.0864 -2.3470 -1.6183 0.0327 18.8193 -4.0671 10.9770 14.9806 -0.3179 -4.2673 -4.3000 -14.9533 2.6275 -16.1528 -18.6772 -0.0051 -0.0322 0.0649 0.6779 -10.6168 -3.7696 -0.6806 -10.5931 3.8614 -14.2948 14.3557 -16.0760 -52.5889 -8.3308 -10.2842 -0.2566 0.5022 -89.5716 10.6590 -13.5656 -20.2343 -14.9899 10.9048 15.7905 -59.6625 1.8086 2.3037 15.0782 10.8158 16.4441 40.6351 -25.2973 -9.3606 -0.1664 0.2666 98.1319 -27.1000 -9.0562 17.6359 16.0510 7.6704 -16.3354 50.0376 -3.5027 -5.4332 12.6380 -8.8884 22.0699 -0.3060 42.6186 -0.8416 -17.9149 -25.1288 6.4693 1.6289 -0.5235 -2.1567 -16.5522 -38.4783 -25.1209 0.5100 44.7228 0.5515 8.1712 -3.3313 4.5315 -1.4282 0.2637 0.7892
0.7273 89.6513 0.3231 4.1793 -5.6626 -1.0161 -0.1360 7.6871 -0.6965 -0.0901 -2.3436 -1.5781 0.0056 18.9418 -4.0586 11.0052 15.0771 -0.3239 -4.2722 -4.3044 -14.9846 2.6169 -16.1706 -18.6681 -0.0071 -0.0340 0.0686 0.6752 -10.6179 -3.7616 -0.6819 -10.5917 3.8609 -14.3731 14.4138 -15.9549 -52.5912 -8.0986 -10.3568 -0.2313 0.5290 -89.5787 10.6277 -13.5697 -20.2596 -14.9630 10.9112 15.7826 -59.6667 1.8117 2.2786 15.2424 10.8773 16.4482 40.7890 -25.2847 -9.3832 -0.1469 0.2398 98.0714 -27.0469 -9.0215 17.7148 16.0261 7.7163 -16.3363 50.0276 -3.4605 -5.4267 12.6302 -8.9154 22.1919 -0.3130 43.0229 -0.8386 -17.7350 -25.3894 6.3280 1.6291 -0.5198 -2.1456 -16.7680 -38.4352 -24.9668 0.5201 44.7392 0.5740 8.2949 -3.2623 4.5810 -1.4257 0.2285 0.8002
0.9422 89.6014 0.2223 4.1652 -5.8358 -1.0585 -0.1766 7.6681 -0.6960 -0.0955 -2.3475 -1.5499 -0.0146 19.0274 -4.0345 11.0499 15.1455 -0.3506 -4.2711 -4.3075 -14.9792 2.5516 -16.1882 -18.6404 -0.0088 -0.0337 0.0718 0.6706 -10.6114 -3.7581 -0.6811 -10.5860 3.8651 -14.4501 14.4719 -15.8481 -52.6212 -7.8486 -10.3771 -0.2427 0.5537 -89.6334 10.5645 -13.6394 -20.2367 -14.9324 10.9297 15.7891 -59.6485 1.8086 2.2641 15.4137 10.9091 16.4414 40.9863 -25.2029 -9.4368 -0.1285 0.2710 98.0001 -26.9282 -9.0380 17.7459 16.0150 7.7380 -16.3647 49.9840 -3.4253 -5.4266 12.6191 -8.8971 22.3415 -0.3233 43.2491 -0.8477 -17.5809 -25.5535 6.2199 1.6294 -0.5247 -2.1287 -16.9293 -38.3415 -24.8918 0.5260 44.6297 0.5911 8.4169 -3.1768 4.6335 -1.4258 0.1892 0.8109
1.0721 89.6140 0.1257 4.1507 -5.9656 -1.0917 -0.2276 7.6437 -0.6842 -0.1068 -2.3644 -1.5503 -0.0207 19.0911 -3.9922 11.1000 15.2236 -0.3926 -4.2523 -4.3020 -14.9512 2.4881 -16.2344 -18.6258 -0.0103 -0.0302 0.0775 0.6694 -10.6070 -3.7519 -0.6829 -10.5849 3.8710 -14.5181 14.5584 -15.7541 -52.6424 -7.6077 -10.3486 -0.2424 0.5152 -89.7471 10.4640 -13.6973 -20.1568 -14.9118 10.9493 15.7835 -59.6827 1.8038 2.2515 15.5932 10.9202 16.4568 41.1644 -25.0671 -9.5078 -0.1298 0.2774 97.9603 -26.8014 -9.1061 17.7800 15.9952 7.7300 -16.3690 49.9427 -3.4237 -5.4012 12.5833 -8.8439 22.4633 -0.3358 43.3244 -0.8552 -17.4110 -25.6389 6.1419 1.6289 -0.5350 -2.1151 -17.0211 -38.2208 -24.8890 0.5277 44.4228 0.6068 8.4911 -3.0599 4.7240 -1.4261 0.1395 0.8221
1.1834 89.6789 0.0738 4.1333 -6.0464 -1.1027 -0.2811 7.6031 -0.6929 -0.1214 -2.3774 -1.5254 -0.0216 19.0856 -3.9609 11.1636 15.2865 -0.3958 -4.2630 -4.3062 -14.9734 2.4366 -16.2668 -18.6386 -0.0083 -0.0290 0.0702 0.6684 -10.6018 -3.7599 -0.6776 -10.5834 3.8633 -14.5801 14.6304 -15.6298 -52.6909 -7.3455 -10.2963 -0.3010 0.4905 -89.8407 10.3556 -13.7412 -20.0605 -14.8893 10.9794 15.7990 -59.6838 1.8185 2.2531 15.7990 10.9115 16.4620 41.3466 -24.8927 -9.6032 -0.0971 0.3269 97.9165 -26.6929 -9.2850 17.8388 15.9899 7.7143 -16.3935 49.9115 -3.4461 -5.3940 12.5517 -8.7259 22.5710 -0.3446 43.1736 -0.8700 -17.2482 -25.6306 6.0721 1.6287 -0.5594 -2.1114 -17.0462 -38.0526 -24.9616 0.5326 44.0710 0.6279 8.5487 -2.8678 4.7837 -1.4275 0.0794 0.8352
1.2696 89.7843 0.0441 4.1200 -6.0755 -1.1211 -0.3377 7.5531 -0.6968 -0.1412 -2.4007 -1.5032 -0.0245 19.0646 -3.9231 11.2279 15.3402 -0.3867 -4.2770 -4.3090 -14.9957 2.4178 -16.2691 -18.6948 -0.0050 -0.0315 0.0561 0.6727 -10.6148 -3.7783 -0.6753 -10.6022 3.8525 -14.6129 14.7147 -15.5180 -52.7303 -7.0974 -10.2527 -0.3020 0.4669 -89.9900 10.2484 -13.7715 -19.9298 -14.8878 10.9935 15.8014 -59.7238 1.8123 2.2455 15.9766 10.9206 16.4846 41.5464 -24.7348 -9.7391 -0.0729 0.3313 97.8927 -26.5814 -9.4640 17.9064 16.0012 7.6715 -16.3750 49.8644 -3.4706 -5.3695 12.4922 -8.6030 22.6602 -0.3454 42.9237 -0.8790 -17.0544 -25.5893 6.0181 1.6282 -0.5821 -2.1049 -17.0232 -37.8846 -25.0372 0.5339 43.6723 0.6334 8.5844 -2.6818 4.8190 -1.4264 0.0308 0.8417
1.2902 89.9121 0.0219 4.1112 -6.0527 -1.1363 -0.3971 7.4856 -0.7027 -0.1522 -2.4129 -1.4894 -0.0318 19.0053 -3.8836 11.2894 15.3481 -0.3668 -4.3082 -4.3212 -15.0329 2.3986 -16.2218 -18.7632 -0.0024 -0.0354 0.0426 0.6754 -10.6209 -3.7927 -0.6726 -10.6111 3.8388 -14.6438 14.7317 -15.3980 -52.7761 -6.8384 -10.1910 -0.3533 0.4148 -90.0979 10.1810 -13.8002 -19.8619 -14.8942 10.9981 15.7988 -59.7378 1.8132 2.2298 16.1168 10.8919 16.5054 41.7170 -24.5541 -9.8595 -0.0275 0.3323 97.8455 -26.4856 -9.6585 17.9745 15.9908 7.6479 -16.3626 49.7999 -3.4736 -5.3401 12.4188 -8.4414 22.7315 -0.3426 42.5235 -0.8851 -16.9103 -25.4651 6.0206 1.6301 -0.5912 -2.0971 -16.9408 -37.7050 -25.1230 0.5273 43.2173 0.6281 8.5977 -2.4777 4.8296 -1.4274 0.0002 0.8501
1.3195 90.0569 0.0195 4.1097 -5.9703 -1.1526 -0.4480 7.4032 -0.6976 -0.1652 -2.4326 -1.4707 -0.0306 18.9259 -3.8502 11.3040 15.3086 -0.3659 -4.3412 -4.3337 -15.0338 2.3818 -16.0957 -18.8197 -0.0004 -0.0395 0.0331 0.6840 -10.6263 -3.8040 -0.6772 -10.6193 3.8309 -14.6672 14.7075 -15.2958 -52.8478 -6.5535 -10.1298 -0.3665 0.3877 -90.2380 10.1158 -13.8436 -19.7862 -14.9228 10.9880 15.7835 -59.7477 1.8223 2.2149 16.2203 10.8361 16.5008 41.8578 -24.2669 -9.9286 -0.0683 0.3365 97.8199 -26.4220 -9.7876 18.0470 15.9944 7.6364 -16.3403 49.8112 -3.4727 -5.3279 12.3357 -8.2751 22.8026 -0.3313 41.9874 -0.8679 -16.7889 -25.2518 6.0426 1.6315 -0.5910 -2.0806 -16.8136 -37.5000 -25.2084 0.5146 42.6823 0.6103 8.6023 -2.2413 4.8201 -1.4291 -0.0207 0.8585
1.2862 90.2386 0.0365 4.1157 -5.8466 -1.1381 -0.4968 7.3083 -0.6962 -0.1766 -2.4484 -1.4511 -0.0240 18.8315 -3.8282 11.2826 15.2288 -0.3754 -4.3446 -4.3434 -15.0522 2.3807 -15.9504 -18.8816 0.0015 -0.0420 0.0309 0.6906 -10.6153 -3.8039 -0.6796 -10.6090 3.8249 -14.6689 14.6651 -15.2023 -52.9191 -6.3194 -10.0449 -0.3851 0.3772 -90.4033 10.0465 -13.8490 -19.7070 -14.9499 10.9726 15.7838 -59.7201 1.8330 2.2224 16.2998 10.7783 16.4944 41.9331 -23.9793 -9.9879 -0.1090 0.3595 97.8041 -26.4329 -9.9487 18.1216 16.0192 7.6204 -16.3275 49.8467 -3.4853 -5.3357 12.2498 -8.1181 22.8917 -0.3169 41.3594 -0.8612 -16.6957 -24.9519 6.0689 1.6316 -0.5708 -2.0675 -16.6561 -37.2969 -25.3431 0.5108 42.1008 0.6005 8.6069 -2.0041 4.7836 -1.4307 -0.0351 0.8656
1.2383 90.4285 0.0611 4.1269 -5.6972 -1.0942 -0.5410 7.2247 -0.6962 -0.1883 -2.4906 -1.4283 -0.0176 18.7448 -3.8282 11.2311 15.1638 -0.4006 -4.3238 -4.3478 -15.0924 2.3779 -15.8239 -18.8943 0.0019 -0.0429 0.0395 0.6930 -10.6114 -3.7942 -0.6812 -10.6025 3.8328 -14.6525 14.6273 -15.1268 -52.9845 -6.1417 -9.9595 -0.4066 0.3220 -90.6117 10.0211 -13.8181 -19.6197 -14.9933 10.9551 15.7747 -59.7203 1.8299 2.2264 16.3573 10.7682 16.4926 41.9963 -23.7616 -10.0957 -0.1125 0.3811 97.8373 -26.4940 -10.2309 18.1719 16.0427 7.6169 -16.3282 49.9465 -3.4835 -5.3373 12.1456 -7.9568 22.9519 -0.3007 40.6736 -0.8298 -16.5962 -24.5971 6.0714 1.6305 -0.5746 -2.0574 -16.4701 -37.1168 -25.5279 0.5215 41.5268 0.6071 8.5971 -1.7592 4.7590 -1.4302 -0.0619 0.8624
1.1667 90.6323 0.0998 4.1506 -5.5082 -1.0566 -0.5828 7.1336 -0.6937 -0.1975 -2.5379 -1.4150 -0.0243 18.6452 -3.8369 11.1934 15.0829 -0.4252 -4.3104 -4.3519 -15.1357 2.3567 -15.7248 -18.9031 0.0016 -0.0418 0.0512 0.6913 -10.6066 -3.7814 -0.6802 -10.5974 3.8442 -14.6559 14.6113 -15.1169 -53.0242 -6.0104 -9.8778 -0.3754 0.3113 -90.8225 10.0769 -13.8145 -19.6025 -15.0099 10.9599 15.7741 -59.7086 1.8233 2.2298 16.4221 10.7352 16.4979 41.9970 -23.5974 -10.2488 -0.0367 0.4009 97.8517 -26.5431 -10.5152 18.1441 16.0395 7.6124 -16.3424 50.0085 -3.4790 -5.3226 12.0448 -7.7653 23.0067 -0.2870 39.8521 -0.8158 -16.5405 -24.1730 6.0941 1.6301 -0.6030 -2.0538 -16.2622 -36.9534 -25.7218 0.5340 40.9395 0.6298 8.5682 -1.5133 4.6954 -1.4284 -0.0849 0.8588
1.0513 90.8695 0.1699 4.1941 -5.2720 -1.0094 -0.6350 7.0228 -0.6999 -0.2044 -2.5837 -1.4131 -0.0357 18.5165 -3.8530 11.1909 14.9675 -0.4359 -4.3313 -4.3510 -15.1643 2.3587 -15.6208 -18.9474 0.0001 -0.0428 0.0649 0.6828 -10.5889 -3.7659 -0.6745 -10.5836 3.8557 -14.7076 14.6063 -15.1431 -53.0668 -5.9445 -9.7603 -0.3409 0.3109 -91.0193 10.1479 -13.8376 -19.6316 -14.9951 10.9490 15.7579 -59.6253 1.8224 2.2343 16.5115 10.6760 16.5199 41.9437 -23.4133 -10.3946 0.0112 0.4604 97.7876 -26.5699 -10.7614 18.1391 16.0080 7.6257 -16.3603 50.0672 -3.4650 -5.3092 11.9220 -7.5389 23.0581 -0.2790 38.8911 -0.8101 -16.5273 -23.6857 6.1516 1.6310 -0.6359 -2.0554 -16.0279 -36.7940 -25.9458 0.5433 40.2893 0.6501 8.5037 -1.2304 4.6445 -1.4269 -0.1063 0.8542
0.9178 91.1255 0.2655 4.2486 -4.9758 -0.9596 -0.6834 6.8955 -0.7227 -0.2055 -2.6320 -1.4261 -0.0495 18.3685 -3.8648 11.2152 14.8495 -0.4185 -4.3564 -4.3431 -15.1666 2.4096 -15.4852 -19.0461 -0.0011 -0.0448 0.0695 0.6712 -10.5848 -3.7598 -0.6652 -10.5844 3.8606 -14.7442 14.5923 -15.2080 -53.1147 -5.9409 -9.6413 -0.3111 0.3105 -91.2077 10.2547 -13.9020 -19.6989 -14.9473 10.9180 15.7459 -59.5324 1.8074 2.2272 16.6061 10.5838 16.5534 41.8220 -23.2416 -10.5757 0.0555 0.4301 97.7163 -26.5235 -10.8957 18.0594 15.9754 7.6227 -16.3650 50.0751 -3.4402 -5.2875 11.7737 -7.3115 23.0901 -0.2785 37.8072 -0.8271 -16.5368 -23.1296 6.2464 1.6344 -0.6653 -2.0592 -15.7485 -36.6676 -26.1892 0.5495 39.6064 0.6631 8.3922 -0.9508 4.5375 -1.4243 -0.0908 0.8421
0.7573 91.3934 0.3798 4.2901 -4.6443 -0.8791 -0.7177 6.7697 -0.7470 -0.2039 -2.6762 -1.4392 -0.0514 18.1833 -3.9122 11.2399 14.7082 -0.3907 -4.4065 -4.3344 -15.1412 2.4804 -15.2688 -19.1438 0.0008 -0.0480 0.0650 0.6657 -10.5870 -3.7663 -0.6555 -10.5930 3.8574 -14.7125 14.5443 -15.2531 -53.2008 -5.9142 -9.5508 -0.2608 0.3693 -91.4070 10.3865 -14.0476 -19.7843 -14.9408 10.8684 15.7409 -59.4604 1.7851 2.2227 16.6309 10.4313 16.5772 41.7201 -22.9736 -10.7593 0.0351 0.3969 97.6528 -26.4439 -10.8990 17.9555 15.9662 7.6132 -16.3621 50.0713 -3.4023 -5.2755 11.6289 -7.0735 23.0768 -0.2753 36.6453 -0.8308 -16.5804 -22.5254 6.3751 1.6402 -0.7014 -2.0580 -15.4347 -36.5232 -26.3945 0.5454 38.9218 0.6666 8.2806 -0.6985 4.3655 -1.4239 -0.0701 0.8387
